# ProBuilder 4.0.5
# https://unity3d.com/unity/features/worldbuilding/probuilder
# 09/05/2019 23:23:00

mtllib ./Voxel.mtl
o Voxel

g Voxel
v 0.5 -0.5 0.5
v -0.5 -0.5 0.5
v 0.5 0.5 0.5
v -0.5 0.5 0.5
v -0.5 -0.5 -0.5
v -0.5 0.5 -0.5
v 0.5 -0.5 -0.5
v 0.5 0.5 -0.5

vt 0.5 -0.5
vt -0.5 -0.5
vt 0.5 0.5
vt -0.5 0.5
vt 0.5 -0.5
vt 0.5 0.5
vt -0.5 -0.5
vt -0.5 0.5

vn 0 0 1
vn -1 0 0
vn 0 0 -1
vn 1 0 0
vn 0 1 0
vn 0 -1 0

g Voxel
usemtl Grass
f 3/3/1 4/4/1 2/2/1 1/1/1
f 4/6/2 6/4/2 5/2/2 2/5/2
f 6/6/3 8/8/3 7/7/3 5/5/3
f 8/6/4 3/4/4 1/2/4 7/5/4
f 8/7/5 6/5/5 4/6/5 3/8/5
f 1/3/6 2/4/6 5/2/6 7/1/6

